<?xml version="1.0" encoding="UTF-8" standalone="no"?>
<!DOCTYPE svg PUBLIC "-//W3C//DTD SVG 1.1//EN"
 "http://www.w3.org/Graphics/SVG/1.1/DTD/svg11.dtd">
<!-- Generated by graphviz version 2.30.1 (20180420.1509)
 -->
<!-- Title: %3 Pages: 1 -->
<svg width="1999pt" height="548pt"
 viewBox="0.00 0.00 1998.80 548.00" xmlns="http://www.w3.org/2000/svg" xmlns:xlink="http://www.w3.org/1999/xlink">
<g id="graph0" class="graph" transform="scale(1 1) rotate(0) translate(4 544)">
<title>%3</title>
<polygon fill="white" stroke="white" points="-4,5 -4,-544 1995.8,-544 1995.8,5 -4,5"/>
<!-- [root] aws_cloudfront_distribution.s3_distribution -->
<g id="node1" class="node"><title>[root] aws_cloudfront_distribution.s3_distribution</title>
<polygon fill="none" stroke="black" points="1596.8,-252 1266.8,-252 1266.8,-216 1596.8,-216 1596.8,-252"/>
<text text-anchor="middle" x="1431.8" y="-230.3" font-family="Times,serif" font-size="14.00">aws_cloudfront_distribution.s3_distribution</text>
</g>
<!-- [root] aws_s3_bucket.b -->
<g id="node9" class="node"><title>[root] aws_s3_bucket.b</title>
<polygon fill="none" stroke="black" points="1713.05,-180 1574.55,-180 1574.55,-144 1713.05,-144 1713.05,-180"/>
<text text-anchor="middle" x="1643.8" y="-158.3" font-family="Times,serif" font-size="14.00">aws_s3_bucket.b</text>
</g>
<!-- [root] aws_cloudfront_distribution.s3_distribution&#45;&gt;[root] aws_s3_bucket.b -->
<g id="edge1" class="edge"><title>[root] aws_cloudfront_distribution.s3_distribution&#45;&gt;[root] aws_s3_bucket.b</title>
<path fill="none" stroke="black" d="M1483.39,-215.966C1513.27,-206.1 1551.06,-193.622 1582.45,-183.255"/>
<polygon fill="black" stroke="black" points="1583.58,-186.57 1591.98,-180.111 1581.38,-179.923 1583.58,-186.57"/>
</g>
<!-- [root] data.aws_acm_certificate.example -->
<g id="node11" class="node"><title>[root] data.aws_acm_certificate.example</title>
<polygon fill="none" stroke="black" points="1315.8,-180 1051.8,-180 1051.8,-144 1315.8,-144 1315.8,-180"/>
<text text-anchor="middle" x="1183.8" y="-158.3" font-family="Times,serif" font-size="14.00">data.aws_acm_certificate.example</text>
</g>
<!-- [root] aws_cloudfront_distribution.s3_distribution&#45;&gt;[root] data.aws_acm_certificate.example -->
<g id="edge2" class="edge"><title>[root] aws_cloudfront_distribution.s3_distribution&#45;&gt;[root] data.aws_acm_certificate.example</title>
<path fill="none" stroke="black" d="M1371.45,-215.966C1336.04,-205.972 1291.14,-193.298 1254.14,-182.854"/>
<polygon fill="black" stroke="black" points="1254.99,-179.459 1244.42,-180.111 1253.09,-186.196 1254.99,-179.459"/>
</g>
<!-- [root] local.s3_origin_id -->
<g id="node13" class="node"><title>[root] local.s3_origin_id</title>
<polygon fill="none" stroke="black" points="1496.8,-180 1360.8,-180 1360.8,-144 1502.8,-144 1502.8,-174 1496.8,-180"/>
<polyline fill="none" stroke="black" points="1496.8,-180 1496.8,-174 "/>
<polyline fill="none" stroke="black" points="1502.8,-174 1496.8,-174 "/>
<text text-anchor="middle" x="1431.8" y="-158.3" font-family="Times,serif" font-size="14.00">local.s3_origin_id</text>
</g>
<!-- [root] aws_cloudfront_distribution.s3_distribution&#45;&gt;[root] local.s3_origin_id -->
<g id="edge3" class="edge"><title>[root] aws_cloudfront_distribution.s3_distribution&#45;&gt;[root] local.s3_origin_id</title>
<path fill="none" stroke="black" d="M1431.8,-215.697C1431.8,-207.983 1431.8,-198.712 1431.8,-190.112"/>
<polygon fill="black" stroke="black" points="1435.3,-190.104 1431.8,-180.104 1428.3,-190.104 1435.3,-190.104"/>
</g>
<!-- [root] aws_codebuild_project.project&#45;with&#45;cache -->
<g id="node2" class="node"><title>[root] aws_codebuild_project.project&#45;with&#45;cache</title>
<polygon fill="none" stroke="black" points="1373.8,-396 1055.8,-396 1055.8,-360 1373.8,-360 1373.8,-396"/>
<text text-anchor="middle" x="1214.8" y="-374.3" font-family="Times,serif" font-size="14.00">aws_codebuild_project.project&#45;with&#45;cache</text>
</g>
<!-- [root] aws_iam_role.test&#45;build -->
<g id="node5" class="node"><title>[root] aws_iam_role.test&#45;build</title>
<polygon fill="none" stroke="black" points="1043.8,-324 857.797,-324 857.797,-288 1043.8,-288 1043.8,-324"/>
<text text-anchor="middle" x="950.797" y="-302.3" font-family="Times,serif" font-size="14.00">aws_iam_role.test&#45;build</text>
</g>
<!-- [root] aws_codebuild_project.project&#45;with&#45;cache&#45;&gt;[root] aws_iam_role.test&#45;build -->
<g id="edge4" class="edge"><title>[root] aws_codebuild_project.project&#45;with&#45;cache&#45;&gt;[root] aws_iam_role.test&#45;build</title>
<path fill="none" stroke="black" d="M1150.55,-359.966C1112.7,-349.93 1064.66,-337.19 1025.17,-326.721"/>
<polygon fill="black" stroke="black" points="1025.89,-323.291 1015.33,-324.111 1024.1,-330.057 1025.89,-323.291"/>
</g>
<!-- [root] aws_codebuild_project.test&#45;build -->
<g id="node3" class="node"><title>[root] aws_codebuild_project.test&#45;build</title>
<polygon fill="none" stroke="black" points="746.047,-396 493.547,-396 493.547,-360 746.047,-360 746.047,-396"/>
<text text-anchor="middle" x="619.797" y="-374.3" font-family="Times,serif" font-size="14.00">aws_codebuild_project.test&#45;build</text>
</g>
<!-- [root] aws_codebuild_project.test&#45;build&#45;&gt;[root] aws_iam_role.test&#45;build -->
<g id="edge5" class="edge"><title>[root] aws_codebuild_project.test&#45;build&#45;&gt;[root] aws_iam_role.test&#45;build</title>
<path fill="none" stroke="black" d="M700.345,-359.966C748.694,-349.741 810.313,-336.71 860.333,-326.131"/>
<polygon fill="black" stroke="black" points="861.115,-329.543 870.175,-324.05 859.667,-322.695 861.115,-329.543"/>
</g>
<!-- [root] aws_s3_bucket.private&#45;bucket -->
<g id="node10" class="node"><title>[root] aws_s3_bucket.private&#45;bucket</title>
<polygon fill="none" stroke="black" points="839.047,-324 604.547,-324 604.547,-288 839.047,-288 839.047,-324"/>
<text text-anchor="middle" x="721.797" y="-302.3" font-family="Times,serif" font-size="14.00">aws_s3_bucket.private&#45;bucket</text>
</g>
<!-- [root] aws_codebuild_project.test&#45;build&#45;&gt;[root] aws_s3_bucket.private&#45;bucket -->
<g id="edge6" class="edge"><title>[root] aws_codebuild_project.test&#45;build&#45;&gt;[root] aws_s3_bucket.private&#45;bucket</title>
<path fill="none" stroke="black" d="M644.749,-359.876C657.838,-350.893 674.057,-339.763 688.233,-330.034"/>
<polygon fill="black" stroke="black" points="690.484,-332.734 696.749,-324.19 686.523,-326.962 690.484,-332.734"/>
</g>
<!-- [root] aws_iam_role.iam_for_lambda -->
<g id="node4" class="node"><title>[root] aws_iam_role.iam_for_lambda</title>
<polygon fill="none" stroke="black" points="289.797,-252 57.797,-252 57.797,-216 289.797,-216 289.797,-252"/>
<text text-anchor="middle" x="173.797" y="-230.3" font-family="Times,serif" font-size="14.00">aws_iam_role.iam_for_lambda</text>
</g>
<!-- [root] provider.aws -->
<g id="node18" class="node"><title>[root] provider.aws</title>
<polygon fill="none" stroke="black" points="898.797,-108 799.893,-90 898.797,-72 997.701,-90 898.797,-108"/>
<text text-anchor="middle" x="898.797" y="-86.3" font-family="Times,serif" font-size="14.00">provider.aws</text>
</g>
<!-- [root] aws_iam_role.iam_for_lambda&#45;&gt;[root] provider.aws -->
<g id="edge7" class="edge"><title>[root] aws_iam_role.iam_for_lambda&#45;&gt;[root] provider.aws</title>
<path fill="none" stroke="black" d="M260.889,-215.942C411.843,-186.376 717.94,-126.423 843.331,-101.864"/>
<polygon fill="black" stroke="black" points="844.329,-105.235 853.47,-99.8779 842.984,-98.3653 844.329,-105.235"/>
</g>
<!-- [root] aws_iam_role.test&#45;build&#45;&gt;[root] provider.aws -->
<g id="edge8" class="edge"><title>[root] aws_iam_role.test&#45;build&#45;&gt;[root] provider.aws</title>
<path fill="none" stroke="black" d="M867.094,-287.949C848.525,-280.114 831.043,-268.681 819.797,-252 792.965,-212.2 797.209,-186.353 819.797,-144 828.293,-128.07 843.937,-116.081 859.076,-107.571"/>
<polygon fill="black" stroke="black" points="861.125,-110.45 868.369,-102.719 857.884,-104.245 861.125,-110.45"/>
</g>
<!-- [root] aws_iam_role_policy.test&#45;build -->
<g id="node6" class="node"><title>[root] aws_iam_role_policy.test&#45;build</title>
<polygon fill="none" stroke="black" points="999.047,-396 764.547,-396 764.547,-360 999.047,-360 999.047,-396"/>
<text text-anchor="middle" x="881.797" y="-374.3" font-family="Times,serif" font-size="14.00">aws_iam_role_policy.test&#45;build</text>
</g>
<!-- [root] aws_iam_role_policy.test&#45;build&#45;&gt;[root] aws_iam_role.test&#45;build -->
<g id="edge9" class="edge"><title>[root] aws_iam_role_policy.test&#45;build&#45;&gt;[root] aws_iam_role.test&#45;build</title>
<path fill="none" stroke="black" d="M898.853,-359.697C907.292,-351.135 917.622,-340.656 926.84,-331.304"/>
<polygon fill="black" stroke="black" points="929.41,-333.683 933.937,-324.104 924.424,-328.769 929.41,-333.683"/>
</g>
<!-- [root] aws_iam_role_policy.test&#45;build&#45;&gt;[root] aws_s3_bucket.private&#45;bucket -->
<g id="edge10" class="edge"><title>[root] aws_iam_role_policy.test&#45;build&#45;&gt;[root] aws_s3_bucket.private&#45;bucket</title>
<path fill="none" stroke="black" d="M842.657,-359.876C820.784,-350.307 793.34,-338.3 770.135,-328.148"/>
<polygon fill="black" stroke="black" points="771.375,-324.87 760.81,-324.068 768.569,-331.283 771.375,-324.87"/>
</g>
<!-- [root] aws_lambda_function.test_lambda -->
<g id="node7" class="node"><title>[root] aws_lambda_function.test_lambda</title>
<polygon fill="none" stroke="black" points="455.047,-396 192.547,-396 192.547,-360 455.047,-360 455.047,-396"/>
<text text-anchor="middle" x="323.797" y="-374.3" font-family="Times,serif" font-size="14.00">aws_lambda_function.test_lambda</text>
</g>
<!-- [root] aws_lambda_function.test_lambda&#45;&gt;[root] aws_iam_role.iam_for_lambda -->
<g id="edge11" class="edge"><title>[root] aws_lambda_function.test_lambda&#45;&gt;[root] aws_iam_role.iam_for_lambda</title>
<path fill="none" stroke="black" d="M192.439,-371.587C117.021,-365.412 32.6572,-352.21 8.79696,-324 -18.6422,-291.558 24.8117,-269.06 73.9904,-254.799"/>
<polygon fill="black" stroke="black" points="75.1818,-258.101 83.8832,-252.057 73.3116,-251.356 75.1818,-258.101"/>
</g>
<!-- [root] var.lambda_filename -->
<g id="node23" class="node"><title>[root] var.lambda_filename</title>
<polygon fill="none" stroke="black" points="175.797,-324 17.797,-324 17.797,-288 181.797,-288 181.797,-318 175.797,-324"/>
<polyline fill="none" stroke="black" points="175.797,-324 175.797,-318 "/>
<polyline fill="none" stroke="black" points="181.797,-318 175.797,-318 "/>
<text text-anchor="middle" x="99.797" y="-302.3" font-family="Times,serif" font-size="14.00">var.lambda_filename</text>
</g>
<!-- [root] aws_lambda_function.test_lambda&#45;&gt;[root] var.lambda_filename -->
<g id="edge12" class="edge"><title>[root] aws_lambda_function.test_lambda&#45;&gt;[root] var.lambda_filename</title>
<path fill="none" stroke="black" d="M269.287,-359.966C237.581,-350.057 197.442,-337.514 164.184,-327.121"/>
<polygon fill="black" stroke="black" points="165.14,-323.753 154.552,-324.111 163.052,-330.434 165.14,-323.753"/>
</g>
<!-- [root] var.lambda_function_name -->
<g id="node24" class="node"><title>[root] var.lambda_function_name</title>
<polygon fill="none" stroke="black" points="403.047,-324 200.547,-324 200.547,-288 409.047,-288 409.047,-318 403.047,-324"/>
<polyline fill="none" stroke="black" points="403.047,-324 403.047,-318 "/>
<polyline fill="none" stroke="black" points="409.047,-318 403.047,-318 "/>
<text text-anchor="middle" x="304.797" y="-302.3" font-family="Times,serif" font-size="14.00">var.lambda_function_name</text>
</g>
<!-- [root] aws_lambda_function.test_lambda&#45;&gt;[root] var.lambda_function_name -->
<g id="edge13" class="edge"><title>[root] aws_lambda_function.test_lambda&#45;&gt;[root] var.lambda_function_name</title>
<path fill="none" stroke="black" d="M319.1,-359.697C316.984,-351.898 314.435,-342.509 312.079,-333.829"/>
<polygon fill="black" stroke="black" points="315.437,-332.838 309.44,-324.104 308.681,-334.672 315.437,-332.838"/>
</g>
<!-- [root] var.lambda_handler -->
<g id="node25" class="node"><title>[root] var.lambda_handler</title>
<polygon fill="none" stroke="black" points="579.797,-324 427.797,-324 427.797,-288 585.797,-288 585.797,-318 579.797,-324"/>
<polyline fill="none" stroke="black" points="579.797,-324 579.797,-318 "/>
<polyline fill="none" stroke="black" points="585.797,-318 579.797,-318 "/>
<text text-anchor="middle" x="506.797" y="-302.3" font-family="Times,serif" font-size="14.00">var.lambda_handler</text>
</g>
<!-- [root] aws_lambda_function.test_lambda&#45;&gt;[root] var.lambda_handler -->
<g id="edge14" class="edge"><title>[root] aws_lambda_function.test_lambda&#45;&gt;[root] var.lambda_handler</title>
<path fill="none" stroke="black" d="M368.564,-359.876C393.915,-350.179 425.808,-337.98 452.57,-327.743"/>
<polygon fill="black" stroke="black" points="454.086,-330.91 462.176,-324.068 451.585,-324.372 454.086,-330.91"/>
</g>
<!-- [root] aws_route53_record.test&#45;site -->
<g id="node8" class="node"><title>[root] aws_route53_record.test&#45;site</title>
<polygon fill="none" stroke="black" points="1287.8,-324 1061.8,-324 1061.8,-288 1287.8,-288 1287.8,-324"/>
<text text-anchor="middle" x="1174.8" y="-302.3" font-family="Times,serif" font-size="14.00">aws_route53_record.test&#45;site</text>
</g>
<!-- [root] aws_route53_record.test&#45;site&#45;&gt;[root] aws_cloudfront_distribution.s3_distribution -->
<g id="edge15" class="edge"><title>[root] aws_route53_record.test&#45;site&#45;&gt;[root] aws_cloudfront_distribution.s3_distribution</title>
<path fill="none" stroke="black" d="M1237.34,-287.966C1274.03,-277.972 1320.56,-265.298 1358.9,-254.854"/>
<polygon fill="black" stroke="black" points="1360.25,-258.116 1368.98,-252.111 1358.41,-251.362 1360.25,-258.116"/>
</g>
<!-- [root] data.aws_route53_zone.test&#45;site -->
<g id="node12" class="node"><title>[root] data.aws_route53_zone.test&#45;site</title>
<polygon fill="none" stroke="black" points="1076.8,-252 828.797,-252 828.797,-216 1076.8,-216 1076.8,-252"/>
<text text-anchor="middle" x="952.797" y="-230.3" font-family="Times,serif" font-size="14.00">data.aws_route53_zone.test&#45;site</text>
</g>
<!-- [root] aws_route53_record.test&#45;site&#45;&gt;[root] data.aws_route53_zone.test&#45;site -->
<g id="edge16" class="edge"><title>[root] aws_route53_record.test&#45;site&#45;&gt;[root] data.aws_route53_zone.test&#45;site</title>
<path fill="none" stroke="black" d="M1120.77,-287.966C1089.35,-278.057 1049.57,-265.514 1016.61,-255.121"/>
<polygon fill="black" stroke="black" points="1017.65,-251.78 1007.06,-252.111 1015.55,-258.456 1017.65,-251.78"/>
</g>
<!-- [root] var.route53_record -->
<g id="node26" class="node"><title>[root] var.route53_record</title>
<polygon fill="none" stroke="black" points="1242.8,-252 1094.8,-252 1094.8,-216 1248.8,-216 1248.8,-246 1242.8,-252"/>
<polyline fill="none" stroke="black" points="1242.8,-252 1242.8,-246 "/>
<polyline fill="none" stroke="black" points="1248.8,-246 1242.8,-246 "/>
<text text-anchor="middle" x="1171.8" y="-230.3" font-family="Times,serif" font-size="14.00">var.route53_record</text>
</g>
<!-- [root] aws_route53_record.test&#45;site&#45;&gt;[root] var.route53_record -->
<g id="edge17" class="edge"><title>[root] aws_route53_record.test&#45;site&#45;&gt;[root] var.route53_record</title>
<path fill="none" stroke="black" d="M1174.06,-287.697C1173.72,-279.983 1173.33,-270.712 1172.96,-262.112"/>
<polygon fill="black" stroke="black" points="1176.46,-261.945 1172.53,-252.104 1169.46,-262.245 1176.46,-261.945"/>
</g>
<!-- [root] aws_s3_bucket.b&#45;&gt;[root] provider.aws -->
<g id="edge18" class="edge"><title>[root] aws_s3_bucket.b&#45;&gt;[root] provider.aws</title>
<path fill="none" stroke="black" d="M1574.33,-151.499C1554.18,-148.894 1532.13,-146.187 1511.8,-144 1319.26,-123.288 1092.03,-105.333 975.774,-96.6164"/>
<polygon fill="black" stroke="black" points="975.789,-93.1078 965.556,-95.8526 975.267,-100.088 975.789,-93.1078"/>
</g>
<!-- [root] var.website_bucket_name -->
<g id="node28" class="node"><title>[root] var.website_bucket_name</title>
<polygon fill="none" stroke="black" points="1738.8,-108 1542.8,-108 1542.8,-72 1744.8,-72 1744.8,-102 1738.8,-108"/>
<polyline fill="none" stroke="black" points="1738.8,-108 1738.8,-102 "/>
<polyline fill="none" stroke="black" points="1744.8,-102 1738.8,-102 "/>
<text text-anchor="middle" x="1643.8" y="-86.3" font-family="Times,serif" font-size="14.00">var.website_bucket_name</text>
</g>
<!-- [root] aws_s3_bucket.b&#45;&gt;[root] var.website_bucket_name -->
<g id="edge19" class="edge"><title>[root] aws_s3_bucket.b&#45;&gt;[root] var.website_bucket_name</title>
<path fill="none" stroke="black" d="M1643.8,-143.697C1643.8,-135.983 1643.8,-126.712 1643.8,-118.112"/>
<polygon fill="black" stroke="black" points="1647.3,-118.104 1643.8,-108.104 1640.3,-118.104 1647.3,-118.104"/>
</g>
<!-- [root] aws_s3_bucket.private&#45;bucket&#45;&gt;[root] provider.aws -->
<g id="edge20" class="edge"><title>[root] aws_s3_bucket.private&#45;bucket&#45;&gt;[root] provider.aws</title>
<path fill="none" stroke="black" d="M729.536,-287.754C747.226,-248.561 789.928,-155.308 800.797,-144 816.506,-127.656 838.372,-115.169 857.464,-106.432"/>
<polygon fill="black" stroke="black" points="859.099,-109.537 866.86,-102.325 856.295,-103.123 859.099,-109.537"/>
</g>
<!-- [root] var.build_bucket_name -->
<g id="node20" class="node"><title>[root] var.build_bucket_name</title>
<polygon fill="none" stroke="black" points="728.797,-252 552.797,-252 552.797,-216 734.797,-216 734.797,-246 728.797,-252"/>
<polyline fill="none" stroke="black" points="728.797,-252 728.797,-246 "/>
<polyline fill="none" stroke="black" points="734.797,-246 728.797,-246 "/>
<text text-anchor="middle" x="643.797" y="-230.3" font-family="Times,serif" font-size="14.00">var.build_bucket_name</text>
</g>
<!-- [root] aws_s3_bucket.private&#45;bucket&#45;&gt;[root] var.build_bucket_name -->
<g id="edge21" class="edge"><title>[root] aws_s3_bucket.private&#45;bucket&#45;&gt;[root] var.build_bucket_name</title>
<path fill="none" stroke="black" d="M702.516,-287.697C692.882,-279.05 681.068,-268.449 670.57,-259.027"/>
<polygon fill="black" stroke="black" points="672.636,-256.179 662.856,-252.104 667.961,-261.388 672.636,-256.179"/>
</g>
<!-- [root] data.aws_acm_certificate.example&#45;&gt;[root] provider.aws -->
<g id="edge22" class="edge"><title>[root] data.aws_acm_certificate.example&#45;&gt;[root] provider.aws</title>
<path fill="none" stroke="black" d="M1114.44,-143.966C1063.17,-131.373 994.57,-114.523 948.64,-103.242"/>
<polygon fill="black" stroke="black" points="949.458,-99.8391 938.912,-100.853 947.788,-106.637 949.458,-99.8391"/>
</g>
<!-- [root] data.aws_route53_zone.test&#45;site&#45;&gt;[root] provider.aws -->
<g id="edge23" class="edge"><title>[root] data.aws_route53_zone.test&#45;site&#45;&gt;[root] provider.aws</title>
<path fill="none" stroke="black" d="M964.962,-215.777C976.439,-197.218 990.183,-167.225 977.797,-144 969.301,-128.07 953.657,-116.081 938.518,-107.571"/>
<polygon fill="black" stroke="black" points="939.709,-104.245 929.225,-102.719 936.469,-110.45 939.709,-104.245"/>
</g>
<!-- [root] var.route53_zone -->
<g id="node27" class="node"><title>[root] var.route53_zone</title>
<polygon fill="none" stroke="black" points="962.797,-180 828.797,-180 828.797,-144 968.797,-144 968.797,-174 962.797,-180"/>
<polyline fill="none" stroke="black" points="962.797,-180 962.797,-174 "/>
<polyline fill="none" stroke="black" points="968.797,-174 962.797,-174 "/>
<text text-anchor="middle" x="898.797" y="-158.3" font-family="Times,serif" font-size="14.00">var.route53_zone</text>
</g>
<!-- [root] data.aws_route53_zone.test&#45;site&#45;&gt;[root] var.route53_zone -->
<g id="edge24" class="edge"><title>[root] data.aws_route53_zone.test&#45;site&#45;&gt;[root] var.route53_zone</title>
<path fill="none" stroke="black" d="M939.449,-215.697C933.04,-207.389 925.239,-197.277 918.191,-188.141"/>
<polygon fill="black" stroke="black" points="920.871,-185.884 911.992,-180.104 915.329,-190.16 920.871,-185.884"/>
</g>
<!-- [root] output.bucket_name -->
<g id="node14" class="node"><title>[root] output.bucket_name</title>
<polygon fill="none" stroke="black" points="1772.8,-252 1614.8,-252 1614.8,-216 1778.8,-216 1778.8,-246 1772.8,-252"/>
<polyline fill="none" stroke="black" points="1772.8,-252 1772.8,-246 "/>
<polyline fill="none" stroke="black" points="1778.8,-246 1772.8,-246 "/>
<text text-anchor="middle" x="1696.8" y="-230.3" font-family="Times,serif" font-size="14.00">output.bucket_name</text>
</g>
<!-- [root] output.bucket_name&#45;&gt;[root] aws_s3_bucket.b -->
<g id="edge35" class="edge"><title>[root] output.bucket_name&#45;&gt;[root] aws_s3_bucket.b</title>
<path fill="none" stroke="black" d="M1683.7,-215.697C1677.41,-207.389 1669.75,-197.277 1662.83,-188.141"/>
<polygon fill="black" stroke="black" points="1665.57,-185.964 1656.75,-180.104 1659.99,-190.19 1665.57,-185.964"/>
</g>
<!-- [root] output.cloudfront_distribution_domain_name -->
<g id="node15" class="node"><title>[root] output.cloudfront_distribution_domain_name</title>
<polygon fill="none" stroke="black" points="1647.05,-324 1312.55,-324 1312.55,-288 1653.05,-288 1653.05,-318 1647.05,-324"/>
<polyline fill="none" stroke="black" points="1647.05,-324 1647.05,-318 "/>
<polyline fill="none" stroke="black" points="1653.05,-318 1647.05,-318 "/>
<text text-anchor="middle" x="1482.8" y="-302.3" font-family="Times,serif" font-size="14.00">output.cloudfront_distribution_domain_name</text>
</g>
<!-- [root] output.cloudfront_distribution_domain_name&#45;&gt;[root] aws_cloudfront_distribution.s3_distribution -->
<g id="edge36" class="edge"><title>[root] output.cloudfront_distribution_domain_name&#45;&gt;[root] aws_cloudfront_distribution.s3_distribution</title>
<path fill="none" stroke="black" d="M1470.19,-287.697C1464.2,-279.474 1456.92,-269.483 1450.32,-260.421"/>
<polygon fill="black" stroke="black" points="1452.98,-258.126 1444.26,-252.104 1447.32,-262.248 1452.98,-258.126"/>
</g>
<!-- [root] output.fqdn -->
<g id="node16" class="node"><title>[root] output.fqdn</title>
<polygon fill="none" stroke="black" points="1612.05,-396 1517.55,-396 1517.55,-360 1618.05,-360 1618.05,-390 1612.05,-396"/>
<polyline fill="none" stroke="black" points="1612.05,-396 1612.05,-390 "/>
<polyline fill="none" stroke="black" points="1618.05,-390 1612.05,-390 "/>
<text text-anchor="middle" x="1567.8" y="-374.3" font-family="Times,serif" font-size="14.00">output.fqdn</text>
</g>
<!-- [root] output.fqdn&#45;&gt;[root] aws_route53_record.test&#45;site -->
<g id="edge37" class="edge"><title>[root] output.fqdn&#45;&gt;[root] aws_route53_record.test&#45;site</title>
<path fill="none" stroke="black" d="M1517.49,-362.28C1514.22,-361.468 1510.97,-360.699 1507.8,-360 1468.53,-351.344 1375.52,-336.716 1297.74,-325.018"/>
<polygon fill="black" stroke="black" points="1298.26,-321.557 1287.85,-323.534 1297.22,-328.479 1298.26,-321.557"/>
</g>
<!-- [root] output.website_endpoint -->
<g id="node17" class="node"><title>[root] output.website_endpoint</title>
<polygon fill="none" stroke="black" points="1984.8,-252 1796.8,-252 1796.8,-216 1990.8,-216 1990.8,-246 1984.8,-252"/>
<polyline fill="none" stroke="black" points="1984.8,-252 1984.8,-246 "/>
<polyline fill="none" stroke="black" points="1990.8,-246 1984.8,-246 "/>
<text text-anchor="middle" x="1893.8" y="-230.3" font-family="Times,serif" font-size="14.00">output.website_endpoint</text>
</g>
<!-- [root] output.website_endpoint&#45;&gt;[root] aws_s3_bucket.b -->
<g id="edge38" class="edge"><title>[root] output.website_endpoint&#45;&gt;[root] aws_s3_bucket.b</title>
<path fill="none" stroke="black" d="M1832.96,-215.966C1797.27,-205.972 1752.01,-193.298 1714.7,-182.854"/>
<polygon fill="black" stroke="black" points="1715.48,-179.437 1704.91,-180.111 1713.59,-186.178 1715.48,-179.437"/>
</g>
<!-- [root] var.aws_region -->
<g id="node19" class="node"><title>[root] var.aws_region</title>
<polygon fill="none" stroke="black" points="954.797,-36 836.797,-36 836.797,-0 960.797,-0 960.797,-30 954.797,-36"/>
<polyline fill="none" stroke="black" points="954.797,-36 954.797,-30 "/>
<polyline fill="none" stroke="black" points="960.797,-30 954.797,-30 "/>
<text text-anchor="middle" x="898.797" y="-14.3" font-family="Times,serif" font-size="14.00">var.aws_region</text>
</g>
<!-- [root] provider.aws&#45;&gt;[root] var.aws_region -->
<g id="edge44" class="edge"><title>[root] provider.aws&#45;&gt;[root] var.aws_region</title>
<path fill="none" stroke="black" d="M898.797,-71.6966C898.797,-63.9827 898.797,-54.7125 898.797,-46.1124"/>
<polygon fill="black" stroke="black" points="902.297,-46.1043 898.797,-36.1043 895.297,-46.1044 902.297,-46.1043"/>
</g>
<!-- [root] var.cb_description -->
<g id="node21" class="node"><title>[root] var.cb_description</title>
<polygon fill="none" stroke="black" points="1894.05,-396 1751.55,-396 1751.55,-360 1900.05,-360 1900.05,-390 1894.05,-396"/>
<polyline fill="none" stroke="black" points="1894.05,-396 1894.05,-390 "/>
<polyline fill="none" stroke="black" points="1900.05,-390 1894.05,-390 "/>
<text text-anchor="middle" x="1825.8" y="-374.3" font-family="Times,serif" font-size="14.00">var.cb_description</text>
</g>
<!-- [root] var.cb_name -->
<g id="node22" class="node"><title>[root] var.cb_name</title>
<polygon fill="none" stroke="black" points="1493.05,-396 1392.55,-396 1392.55,-360 1499.05,-360 1499.05,-390 1493.05,-396"/>
<polyline fill="none" stroke="black" points="1493.05,-396 1493.05,-390 "/>
<polyline fill="none" stroke="black" points="1499.05,-390 1493.05,-390 "/>
<text text-anchor="middle" x="1445.8" y="-374.3" font-family="Times,serif" font-size="14.00">var.cb_name</text>
</g>
<!-- [root] meta.count&#45;boundary (EachMode fixup) -->
<g id="node29" class="node"><title>[root] meta.count&#45;boundary (EachMode fixup)</title>
<ellipse fill="none" stroke="black" cx="1445.8" cy="-450" rx="224.345" ry="18"/>
<text text-anchor="middle" x="1445.8" y="-446.3" font-family="Times,serif" font-size="14.00">[root] meta.count&#45;boundary (EachMode fixup)</text>
</g>
<!-- [root] meta.count&#45;boundary (EachMode fixup)&#45;&gt;[root] aws_codebuild_project.project&#45;with&#45;cache -->
<g id="edge25" class="edge"><title>[root] meta.count&#45;boundary (EachMode fixup)&#45;&gt;[root] aws_codebuild_project.project&#45;with&#45;cache</title>
<path fill="none" stroke="black" d="M1391.35,-432.5C1358.3,-422.487 1315.91,-409.64 1280.95,-399.045"/>
<polygon fill="black" stroke="black" points="1281.88,-395.671 1271.29,-396.121 1279.85,-402.37 1281.88,-395.671"/>
</g>
<!-- [root] meta.count&#45;boundary (EachMode fixup)&#45;&gt;[root] aws_codebuild_project.test&#45;build -->
<g id="edge26" class="edge"><title>[root] meta.count&#45;boundary (EachMode fixup)&#45;&gt;[root] aws_codebuild_project.test&#45;build</title>
<path fill="none" stroke="black" d="M1275.56,-438.262C1138.1,-429.044 939.442,-414.491 756.339,-396.13"/>
<polygon fill="black" stroke="black" points="756.549,-392.634 746.249,-395.113 755.847,-399.599 756.549,-392.634"/>
</g>
<!-- [root] meta.count&#45;boundary (EachMode fixup)&#45;&gt;[root] aws_iam_role_policy.test&#45;build -->
<g id="edge27" class="edge"><title>[root] meta.count&#45;boundary (EachMode fixup)&#45;&gt;[root] aws_iam_role_policy.test&#45;build</title>
<path fill="none" stroke="black" d="M1329.62,-434.581C1236.34,-423.004 1105.52,-406.767 1009.35,-394.831"/>
<polygon fill="black" stroke="black" points="1009.63,-391.339 999.277,-393.581 1008.77,-398.286 1009.63,-391.339"/>
</g>
<!-- [root] meta.count&#45;boundary (EachMode fixup)&#45;&gt;[root] aws_lambda_function.test_lambda -->
<g id="edge28" class="edge"><title>[root] meta.count&#45;boundary (EachMode fixup)&#45;&gt;[root] aws_lambda_function.test_lambda</title>
<path fill="none" stroke="black" d="M1260.11,-439.896C1023.96,-428.122 629.37,-407.736 483.797,-396 477.676,-395.507 471.426,-394.972 465.114,-394.408"/>
<polygon fill="black" stroke="black" points="465.433,-390.923 455.156,-393.499 464.796,-397.894 465.433,-390.923"/>
</g>
<!-- [root] meta.count&#45;boundary (EachMode fixup)&#45;&gt;[root] output.bucket_name -->
<g id="edge29" class="edge"><title>[root] meta.count&#45;boundary (EachMode fixup)&#45;&gt;[root] output.bucket_name</title>
<path fill="none" stroke="black" d="M1572.85,-435.142C1599.21,-427.138 1624.96,-414.83 1644.8,-396 1682.16,-360.539 1692.73,-298.115 1695.69,-262.306"/>
<polygon fill="black" stroke="black" points="1699.2,-262.321 1696.38,-252.107 1692.21,-261.846 1699.2,-262.321"/>
</g>
<!-- [root] meta.count&#45;boundary (EachMode fixup)&#45;&gt;[root] output.cloudfront_distribution_domain_name -->
<g id="edge30" class="edge"><title>[root] meta.count&#45;boundary (EachMode fixup)&#45;&gt;[root] output.cloudfront_distribution_domain_name</title>
<path fill="none" stroke="black" d="M1534.3,-433.443C1574.17,-424.456 1614.97,-411.788 1626.8,-396 1636.39,-383.195 1635.95,-373.123 1626.8,-360 1617.2,-346.249 1603.63,-336.055 1588.6,-328.502"/>
<polygon fill="black" stroke="black" points="1589.63,-325.123 1579.08,-324.132 1586.71,-331.484 1589.63,-325.123"/>
</g>
<!-- [root] meta.count&#45;boundary (EachMode fixup)&#45;&gt;[root] output.fqdn -->
<g id="edge31" class="edge"><title>[root] meta.count&#45;boundary (EachMode fixup)&#45;&gt;[root] output.fqdn</title>
<path fill="none" stroke="black" d="M1475.33,-432.055C1491.54,-422.752 1511.84,-411.105 1529.29,-401.096"/>
<polygon fill="black" stroke="black" points="1531.18,-404.044 1538.11,-396.032 1527.7,-397.973 1531.18,-404.044"/>
</g>
<!-- [root] meta.count&#45;boundary (EachMode fixup)&#45;&gt;[root] output.website_endpoint -->
<g id="edge32" class="edge"><title>[root] meta.count&#45;boundary (EachMode fixup)&#45;&gt;[root] output.website_endpoint</title>
<path fill="none" stroke="black" d="M1547.91,-433.976C1587.74,-425.848 1633.04,-413.724 1671.8,-396 1750.01,-360.231 1828.39,-294.772 1867.75,-259.337"/>
<polygon fill="black" stroke="black" points="1870.5,-261.569 1875.54,-252.252 1865.79,-256.389 1870.5,-261.569"/>
</g>
<!-- [root] meta.count&#45;boundary (EachMode fixup)&#45;&gt;[root] var.cb_description -->
<g id="edge33" class="edge"><title>[root] meta.count&#45;boundary (EachMode fixup)&#45;&gt;[root] var.cb_description</title>
<path fill="none" stroke="black" d="M1532.74,-433.367C1590.59,-422.914 1668.27,-408.785 1736.8,-396 1738.3,-395.721 1739.81,-395.438 1741.33,-395.153"/>
<polygon fill="black" stroke="black" points="1742.32,-398.527 1751.51,-393.24 1741.03,-391.648 1742.32,-398.527"/>
</g>
<!-- [root] meta.count&#45;boundary (EachMode fixup)&#45;&gt;[root] var.cb_name -->
<g id="edge34" class="edge"><title>[root] meta.count&#45;boundary (EachMode fixup)&#45;&gt;[root] var.cb_name</title>
<path fill="none" stroke="black" d="M1445.8,-431.697C1445.8,-423.983 1445.8,-414.712 1445.8,-406.112"/>
<polygon fill="black" stroke="black" points="1449.3,-406.104 1445.8,-396.104 1442.3,-406.104 1449.3,-406.104"/>
</g>
<!-- [root] provider.aws (close) -->
<g id="node30" class="node"><title>[root] provider.aws (close)</title>
<ellipse fill="none" stroke="black" cx="954.797" cy="-450" rx="132.382" ry="18"/>
<text text-anchor="middle" x="954.797" y="-446.3" font-family="Times,serif" font-size="14.00">[root] provider.aws (close)</text>
</g>
<!-- [root] provider.aws (close)&#45;&gt;[root] aws_codebuild_project.project&#45;with&#45;cache -->
<g id="edge39" class="edge"><title>[root] provider.aws (close)&#45;&gt;[root] aws_codebuild_project.project&#45;with&#45;cache</title>
<path fill="none" stroke="black" d="M1011.53,-433.725C1049.71,-423.446 1100.41,-409.797 1141.62,-398.702"/>
<polygon fill="black" stroke="black" points="1142.59,-402.065 1151.34,-396.085 1140.77,-395.306 1142.59,-402.065"/>
</g>
<!-- [root] provider.aws (close)&#45;&gt;[root] aws_codebuild_project.test&#45;build -->
<g id="edge40" class="edge"><title>[root] provider.aws (close)&#45;&gt;[root] aws_codebuild_project.test&#45;build</title>
<path fill="none" stroke="black" d="M885.791,-434.581C835.393,-424.05 766.545,-409.664 711.52,-398.166"/>
<polygon fill="black" stroke="black" points="711.919,-394.674 701.415,-396.054 710.487,-401.526 711.919,-394.674"/>
</g>
<!-- [root] provider.aws (close)&#45;&gt;[root] aws_iam_role_policy.test&#45;build -->
<g id="edge41" class="edge"><title>[root] provider.aws (close)&#45;&gt;[root] aws_iam_role_policy.test&#45;build</title>
<path fill="none" stroke="black" d="M937.126,-432.055C928.047,-423.349 916.828,-412.591 906.871,-403.043"/>
<polygon fill="black" stroke="black" points="909.199,-400.427 899.559,-396.032 904.354,-405.479 909.199,-400.427"/>
</g>
<!-- [root] provider.aws (close)&#45;&gt;[root] aws_lambda_function.test_lambda -->
<g id="edge42" class="edge"><title>[root] provider.aws (close)&#45;&gt;[root] aws_lambda_function.test_lambda</title>
<path fill="none" stroke="black" d="M855.856,-438.024C750.959,-426.387 584.34,-407.903 465.518,-394.722"/>
<polygon fill="black" stroke="black" points="465.578,-391.207 455.253,-393.583 464.806,-398.164 465.578,-391.207"/>
</g>
<!-- [root] provider.aws (close)&#45;&gt;[root] aws_route53_record.test&#45;site -->
<g id="edge43" class="edge"><title>[root] provider.aws (close)&#45;&gt;[root] aws_route53_record.test&#45;site</title>
<path fill="none" stroke="black" d="M971.695,-431.98C995.881,-407.723 1038.39,-365.517 1046.8,-360 1066.68,-346.954 1090.3,-336.08 1111.8,-327.646"/>
<polygon fill="black" stroke="black" points="1113.09,-330.898 1121.18,-324.062 1110.59,-324.359 1113.09,-330.898"/>
</g>
<!-- [root] root -->
<g id="node31" class="node"><title>[root] root</title>
<ellipse fill="none" stroke="black" cx="1199.8" cy="-522" rx="58.2422" ry="18"/>
<text text-anchor="middle" x="1199.8" y="-518.3" font-family="Times,serif" font-size="14.00">[root] root</text>
</g>
<!-- [root] root&#45;&gt;[root] meta.count&#45;boundary (EachMode fixup) -->
<g id="edge45" class="edge"><title>[root] root&#45;&gt;[root] meta.count&#45;boundary (EachMode fixup)</title>
<path fill="none" stroke="black" d="M1241.25,-509.205C1278.68,-498.555 1334.44,-482.688 1378.29,-470.209"/>
<polygon fill="black" stroke="black" points="1379.36,-473.543 1388.02,-467.44 1377.45,-466.81 1379.36,-473.543"/>
</g>
<!-- [root] root&#45;&gt;[root] provider.aws (close) -->
<g id="edge46" class="edge"><title>[root] root&#45;&gt;[root] provider.aws (close)</title>
<path fill="none" stroke="black" d="M1158.51,-509.205C1120.35,-498.301 1063.05,-481.929 1018.93,-469.324"/>
<polygon fill="black" stroke="black" points="1019.74,-465.914 1009.16,-466.532 1017.81,-472.645 1019.74,-465.914"/>
</g>
</g>
</svg>
