<?xml version="1.0" encoding="UTF-8" standalone="no"?>
<!DOCTYPE svg PUBLIC "-//W3C//DTD SVG 1.1//EN"
 "http://www.w3.org/Graphics/SVG/1.1/DTD/svg11.dtd">
<!-- Generated by graphviz version 2.30.1 (20180420.1509)
 -->
<!-- Title: %3 Pages: 1 -->
<svg width="1636pt" height="548pt"
 viewBox="0.00 0.00 1636.00 548.00" xmlns="http://www.w3.org/2000/svg" xmlns:xlink="http://www.w3.org/1999/xlink">
<g id="graph0" class="graph" transform="scale(1 1) rotate(0) translate(4 544)">
<title>%3</title>
<polygon fill="white" stroke="white" points="-4,5 -4,-544 1633,-544 1633,5 -4,5"/>
<!-- [root] aws_cloudfront_distribution.s3_distribution -->
<g id="node1" class="node"><title>[root] aws_cloudfront_distribution.s3_distribution</title>
<polygon fill="none" stroke="black" points="1318,-252 988,-252 988,-216 1318,-216 1318,-252"/>
<text text-anchor="middle" x="1153" y="-230.3" font-family="Times,serif" font-size="14.00">aws_cloudfront_distribution.s3_distribution</text>
</g>
<!-- [root] aws_s3_bucket.b -->
<g id="node9" class="node"><title>[root] aws_s3_bucket.b</title>
<polygon fill="none" stroke="black" points="1398.25,-180 1259.75,-180 1259.75,-144 1398.25,-144 1398.25,-180"/>
<text text-anchor="middle" x="1329" y="-158.3" font-family="Times,serif" font-size="14.00">aws_s3_bucket.b</text>
</g>
<!-- [root] aws_cloudfront_distribution.s3_distribution&#45;&gt;[root] aws_s3_bucket.b -->
<g id="edge1" class="edge"><title>[root] aws_cloudfront_distribution.s3_distribution&#45;&gt;[root] aws_s3_bucket.b</title>
<path fill="none" stroke="black" d="M1196.05,-215.876C1220.33,-206.222 1250.84,-194.087 1276.51,-183.878"/>
<polygon fill="black" stroke="black" points="1278.09,-187.016 1286.09,-180.068 1275.5,-180.512 1278.09,-187.016"/>
</g>
<!-- [root] data.aws_acm_certificate.example -->
<g id="node11" class="node"><title>[root] data.aws_acm_certificate.example</title>
<polygon fill="none" stroke="black" points="1054,-180 790,-180 790,-144 1054,-144 1054,-180"/>
<text text-anchor="middle" x="922" y="-158.3" font-family="Times,serif" font-size="14.00">data.aws_acm_certificate.example</text>
</g>
<!-- [root] aws_cloudfront_distribution.s3_distribution&#45;&gt;[root] data.aws_acm_certificate.example -->
<g id="edge2" class="edge"><title>[root] aws_cloudfront_distribution.s3_distribution&#45;&gt;[root] data.aws_acm_certificate.example</title>
<path fill="none" stroke="black" d="M1096.79,-215.966C1064.09,-206.057 1022.7,-193.514 988.399,-183.121"/>
<polygon fill="black" stroke="black" points="989.051,-179.661 978.466,-180.111 987.021,-186.361 989.051,-179.661"/>
</g>
<!-- [root] local.s3_origin_id -->
<g id="node13" class="node"><title>[root] local.s3_origin_id</title>
<polygon fill="none" stroke="black" points="1218,-180 1082,-180 1082,-144 1224,-144 1224,-174 1218,-180"/>
<polyline fill="none" stroke="black" points="1218,-180 1218,-174 "/>
<polyline fill="none" stroke="black" points="1224,-174 1218,-174 "/>
<text text-anchor="middle" x="1153" y="-158.3" font-family="Times,serif" font-size="14.00">local.s3_origin_id</text>
</g>
<!-- [root] aws_cloudfront_distribution.s3_distribution&#45;&gt;[root] local.s3_origin_id -->
<g id="edge3" class="edge"><title>[root] aws_cloudfront_distribution.s3_distribution&#45;&gt;[root] local.s3_origin_id</title>
<path fill="none" stroke="black" d="M1153,-215.697C1153,-207.983 1153,-198.712 1153,-190.112"/>
<polygon fill="black" stroke="black" points="1156.5,-190.104 1153,-180.104 1149.5,-190.104 1156.5,-190.104"/>
</g>
<!-- [root] aws_codebuild_project.project&#45;with&#45;cache -->
<g id="node2" class="node"><title>[root] aws_codebuild_project.project&#45;with&#45;cache</title>
<polygon fill="none" stroke="black" points="1161,-396 843,-396 843,-360 1161,-360 1161,-396"/>
<text text-anchor="middle" x="1002" y="-374.3" font-family="Times,serif" font-size="14.00">aws_codebuild_project.project&#45;with&#45;cache</text>
</g>
<!-- [root] aws_iam_role.test&#45;build -->
<g id="node5" class="node"><title>[root] aws_iam_role.test&#45;build</title>
<polygon fill="none" stroke="black" points="729,-324 543,-324 543,-288 729,-288 729,-324"/>
<text text-anchor="middle" x="636" y="-302.3" font-family="Times,serif" font-size="14.00">aws_iam_role.test&#45;build</text>
</g>
<!-- [root] aws_codebuild_project.project&#45;with&#45;cache&#45;&gt;[root] aws_iam_role.test&#45;build -->
<g id="edge4" class="edge"><title>[root] aws_codebuild_project.project&#45;with&#45;cache&#45;&gt;[root] aws_iam_role.test&#45;build</title>
<path fill="none" stroke="black" d="M912.934,-359.966C859.139,-349.677 790.486,-336.547 734.994,-325.933"/>
<polygon fill="black" stroke="black" points="735.627,-322.491 725.147,-324.05 734.312,-329.366 735.627,-322.491"/>
</g>
<!-- [root] aws_codebuild_project.test&#45;build -->
<g id="node3" class="node"><title>[root] aws_codebuild_project.test&#45;build</title>
<polygon fill="none" stroke="black" points="533.25,-396 280.75,-396 280.75,-360 533.25,-360 533.25,-396"/>
<text text-anchor="middle" x="407" y="-374.3" font-family="Times,serif" font-size="14.00">aws_codebuild_project.test&#45;build</text>
</g>
<!-- [root] aws_codebuild_project.test&#45;build&#45;&gt;[root] aws_iam_role.test&#45;build -->
<g id="edge5" class="edge"><title>[root] aws_codebuild_project.test&#45;build&#45;&gt;[root] aws_iam_role.test&#45;build</title>
<path fill="none" stroke="black" d="M462.727,-359.966C495.141,-350.057 536.176,-337.514 570.175,-327.121"/>
<polygon fill="black" stroke="black" points="571.483,-330.381 580.023,-324.111 569.437,-323.687 571.483,-330.381"/>
</g>
<!-- [root] aws_s3_bucket.private&#45;bucket -->
<g id="node10" class="node"><title>[root] aws_s3_bucket.private&#45;bucket</title>
<polygon fill="none" stroke="black" points="524.25,-324 289.75,-324 289.75,-288 524.25,-288 524.25,-324"/>
<text text-anchor="middle" x="407" y="-302.3" font-family="Times,serif" font-size="14.00">aws_s3_bucket.private&#45;bucket</text>
</g>
<!-- [root] aws_codebuild_project.test&#45;build&#45;&gt;[root] aws_s3_bucket.private&#45;bucket -->
<g id="edge6" class="edge"><title>[root] aws_codebuild_project.test&#45;build&#45;&gt;[root] aws_s3_bucket.private&#45;bucket</title>
<path fill="none" stroke="black" d="M407,-359.697C407,-351.983 407,-342.712 407,-334.112"/>
<polygon fill="black" stroke="black" points="410.5,-334.104 407,-324.104 403.5,-334.104 410.5,-334.104"/>
</g>
<!-- [root] aws_iam_role.iam_for_lambda -->
<g id="node4" class="node"><title>[root] aws_iam_role.iam_for_lambda</title>
<polygon fill="none" stroke="black" points="410,-252 178,-252 178,-216 410,-216 410,-252"/>
<text text-anchor="middle" x="294" y="-230.3" font-family="Times,serif" font-size="14.00">aws_iam_role.iam_for_lambda</text>
</g>
<!-- [root] provider.aws -->
<g id="node18" class="node"><title>[root] provider.aws</title>
<polygon fill="none" stroke="black" points="693,-108 594.096,-90 693,-72 791.904,-90 693,-108"/>
<text text-anchor="middle" x="693" y="-86.3" font-family="Times,serif" font-size="14.00">provider.aws</text>
</g>
<!-- [root] aws_iam_role.iam_for_lambda&#45;&gt;[root] provider.aws -->
<g id="edge7" class="edge"><title>[root] aws_iam_role.iam_for_lambda&#45;&gt;[root] provider.aws</title>
<path fill="none" stroke="black" d="M327.292,-215.995C366.089,-196.662 432.489,-165.06 492,-144 541.188,-126.594 598.927,-111.944 639.87,-102.488"/>
<polygon fill="black" stroke="black" points="640.671,-105.896 649.64,-100.257 639.112,-99.0712 640.671,-105.896"/>
</g>
<!-- [root] aws_iam_role.test&#45;build&#45;&gt;[root] provider.aws -->
<g id="edge8" class="edge"><title>[root] aws_iam_role.test&#45;build&#45;&gt;[root] provider.aws</title>
<path fill="none" stroke="black" d="M640.568,-287.849C650.522,-250.478 674.222,-161.501 686.044,-117.114"/>
<polygon fill="black" stroke="black" points="689.454,-117.912 688.646,-107.348 682.69,-116.11 689.454,-117.912"/>
</g>
<!-- [root] aws_iam_role_policy.test&#45;build -->
<g id="node6" class="node"><title>[root] aws_iam_role_policy.test&#45;build</title>
<polygon fill="none" stroke="black" points="786.25,-396 551.75,-396 551.75,-360 786.25,-360 786.25,-396"/>
<text text-anchor="middle" x="669" y="-374.3" font-family="Times,serif" font-size="14.00">aws_iam_role_policy.test&#45;build</text>
</g>
<!-- [root] aws_iam_role_policy.test&#45;build&#45;&gt;[root] aws_iam_role.test&#45;build -->
<g id="edge9" class="edge"><title>[root] aws_iam_role_policy.test&#45;build&#45;&gt;[root] aws_iam_role.test&#45;build</title>
<path fill="none" stroke="black" d="M660.843,-359.697C657.086,-351.728 652.547,-342.1 648.382,-333.264"/>
<polygon fill="black" stroke="black" points="651.494,-331.657 644.063,-324.104 645.162,-334.642 651.494,-331.657"/>
</g>
<!-- [root] aws_iam_role_policy.test&#45;build&#45;&gt;[root] aws_s3_bucket.private&#45;bucket -->
<g id="edge10" class="edge"><title>[root] aws_iam_role_policy.test&#45;build&#45;&gt;[root] aws_s3_bucket.private&#45;bucket</title>
<path fill="none" stroke="black" d="M605.243,-359.966C567.68,-349.93 519.999,-337.19 480.812,-326.721"/>
<polygon fill="black" stroke="black" points="481.608,-323.311 471.043,-324.111 479.801,-330.073 481.608,-323.311"/>
</g>
<!-- [root] aws_lambda_function.test_lambda -->
<g id="node7" class="node"><title>[root] aws_lambda_function.test_lambda</title>
<polygon fill="none" stroke="black" points="262.25,-396 -0.25,-396 -0.25,-360 262.25,-360 262.25,-396"/>
<text text-anchor="middle" x="131" y="-374.3" font-family="Times,serif" font-size="14.00">aws_lambda_function.test_lambda</text>
</g>
<!-- [root] aws_lambda_function.test_lambda&#45;&gt;[root] aws_iam_role.iam_for_lambda -->
<g id="edge11" class="edge"><title>[root] aws_lambda_function.test_lambda&#45;&gt;[root] aws_iam_role.iam_for_lambda</title>
<path fill="none" stroke="black" d="M150.662,-359.871C179.543,-334.711 233.56,-287.654 266.403,-259.042"/>
<polygon fill="black" stroke="black" points="269.028,-261.397 274.269,-252.189 264.43,-256.119 269.028,-261.397"/>
</g>
<!-- [root] aws_route53_record.test&#45;site -->
<g id="node8" class="node"><title>[root] aws_route53_record.test&#45;site</title>
<polygon fill="none" stroke="black" points="973,-324 747,-324 747,-288 973,-288 973,-324"/>
<text text-anchor="middle" x="860" y="-302.3" font-family="Times,serif" font-size="14.00">aws_route53_record.test&#45;site</text>
</g>
<!-- [root] aws_route53_record.test&#45;site&#45;&gt;[root] aws_cloudfront_distribution.s3_distribution -->
<g id="edge12" class="edge"><title>[root] aws_route53_record.test&#45;site&#45;&gt;[root] aws_cloudfront_distribution.s3_distribution</title>
<path fill="none" stroke="black" d="M931.301,-287.966C973.743,-277.826 1027.74,-264.927 1071.81,-254.396"/>
<polygon fill="black" stroke="black" points="1072.72,-257.778 1081.63,-252.05 1071.09,-250.97 1072.72,-257.778"/>
</g>
<!-- [root] data.aws_route53_zone.test&#45;site -->
<g id="node12" class="node"><title>[root] data.aws_route53_zone.test&#45;site</title>
<polygon fill="none" stroke="black" points="953,-252 705,-252 705,-216 953,-216 953,-252"/>
<text text-anchor="middle" x="829" y="-230.3" font-family="Times,serif" font-size="14.00">data.aws_route53_zone.test&#45;site</text>
</g>
<!-- [root] aws_route53_record.test&#45;site&#45;&gt;[root] data.aws_route53_zone.test&#45;site -->
<g id="edge13" class="edge"><title>[root] aws_route53_record.test&#45;site&#45;&gt;[root] data.aws_route53_zone.test&#45;site</title>
<path fill="none" stroke="black" d="M852.337,-287.697C848.808,-279.728 844.544,-270.1 840.631,-261.264"/>
<polygon fill="black" stroke="black" points="843.824,-259.831 836.575,-252.104 837.424,-262.665 843.824,-259.831"/>
</g>
<!-- [root] aws_s3_bucket.b&#45;&gt;[root] provider.aws -->
<g id="edge14" class="edge"><title>[root] aws_s3_bucket.b&#45;&gt;[root] provider.aws</title>
<path fill="none" stroke="black" d="M1259.62,-148.059C1250.68,-146.584 1241.64,-145.187 1233,-144 1068.62,-121.414 874.813,-104.818 769.883,-96.6618"/>
<polygon fill="black" stroke="black" points="769.941,-93.1559 759.701,-95.8751 769.401,-100.135 769.941,-93.1559"/>
</g>
<!-- [root] var.website_bucket_name -->
<g id="node20" class="node"><title>[root] var.website_bucket_name</title>
<polygon fill="none" stroke="black" points="1424,-108 1228,-108 1228,-72 1430,-72 1430,-102 1424,-108"/>
<polyline fill="none" stroke="black" points="1424,-108 1424,-102 "/>
<polyline fill="none" stroke="black" points="1430,-102 1424,-102 "/>
<text text-anchor="middle" x="1329" y="-86.3" font-family="Times,serif" font-size="14.00">var.website_bucket_name</text>
</g>
<!-- [root] aws_s3_bucket.b&#45;&gt;[root] var.website_bucket_name -->
<g id="edge15" class="edge"><title>[root] aws_s3_bucket.b&#45;&gt;[root] var.website_bucket_name</title>
<path fill="none" stroke="black" d="M1329,-143.697C1329,-135.983 1329,-126.712 1329,-118.112"/>
<polygon fill="black" stroke="black" points="1332.5,-118.104 1329,-108.104 1325.5,-118.104 1332.5,-118.104"/>
</g>
<!-- [root] aws_s3_bucket.private&#45;bucket&#45;&gt;[root] provider.aws -->
<g id="edge16" class="edge"><title>[root] aws_s3_bucket.private&#45;bucket&#45;&gt;[root] provider.aws</title>
<path fill="none" stroke="black" d="M429.921,-287.849C482.263,-248.685 610.351,-152.842 666.214,-111.042"/>
<polygon fill="black" stroke="black" points="668.628,-113.608 674.537,-104.815 664.434,-108.003 668.628,-113.608"/>
</g>
<!-- [root] data.aws_acm_certificate.example&#45;&gt;[root] provider.aws -->
<g id="edge17" class="edge"><title>[root] data.aws_acm_certificate.example&#45;&gt;[root] provider.aws</title>
<path fill="none" stroke="black" d="M866.273,-143.966C826.822,-131.906 774.6,-115.943 737.836,-104.705"/>
<polygon fill="black" stroke="black" points="738.486,-101.244 727.9,-101.668 736.44,-107.939 738.486,-101.244"/>
</g>
<!-- [root] data.aws_route53_zone.test&#45;site&#45;&gt;[root] provider.aws -->
<g id="edge18" class="edge"><title>[root] data.aws_route53_zone.test&#45;site&#45;&gt;[root] provider.aws</title>
<path fill="none" stroke="black" d="M812.595,-215.871C787.927,-190.115 741.282,-141.412 714.109,-113.04"/>
<polygon fill="black" stroke="black" points="716.44,-110.414 706.996,-105.613 711.385,-115.256 716.44,-110.414"/>
</g>
<!-- [root] output.bucket_name -->
<g id="node14" class="node"><title>[root] output.bucket_name</title>
<polygon fill="none" stroke="black" points="1509,-324 1351,-324 1351,-288 1515,-288 1515,-318 1509,-324"/>
<polyline fill="none" stroke="black" points="1509,-324 1509,-318 "/>
<polyline fill="none" stroke="black" points="1515,-318 1509,-318 "/>
<text text-anchor="middle" x="1433" y="-302.3" font-family="Times,serif" font-size="14.00">output.bucket_name</text>
</g>
<!-- [root] output.bucket_name&#45;&gt;[root] aws_s3_bucket.b -->
<g id="edge27" class="edge"><title>[root] output.bucket_name&#45;&gt;[root] aws_s3_bucket.b</title>
<path fill="none" stroke="black" d="M1420.46,-287.871C1402.34,-263.137 1368.73,-217.242 1347.68,-188.512"/>
<polygon fill="black" stroke="black" points="1350.32,-186.189 1341.59,-180.189 1344.67,-190.325 1350.32,-186.189"/>
</g>
<!-- [root] output.cloudfront_distribution_domain_name -->
<g id="node15" class="node"><title>[root] output.cloudfront_distribution_domain_name</title>
<polygon fill="none" stroke="black" points="1326.25,-324 991.75,-324 991.75,-288 1332.25,-288 1332.25,-318 1326.25,-324"/>
<polyline fill="none" stroke="black" points="1326.25,-324 1326.25,-318 "/>
<polyline fill="none" stroke="black" points="1332.25,-318 1326.25,-318 "/>
<text text-anchor="middle" x="1162" y="-302.3" font-family="Times,serif" font-size="14.00">output.cloudfront_distribution_domain_name</text>
</g>
<!-- [root] output.cloudfront_distribution_domain_name&#45;&gt;[root] aws_cloudfront_distribution.s3_distribution -->
<g id="edge28" class="edge"><title>[root] output.cloudfront_distribution_domain_name&#45;&gt;[root] aws_cloudfront_distribution.s3_distribution</title>
<path fill="none" stroke="black" d="M1159.78,-287.697C1158.78,-279.983 1157.59,-270.712 1156.49,-262.112"/>
<polygon fill="black" stroke="black" points="1159.95,-261.576 1155.2,-252.104 1153,-262.469 1159.95,-261.576"/>
</g>
<!-- [root] output.fqdn -->
<g id="node16" class="node"><title>[root] output.fqdn</title>
<polygon fill="none" stroke="black" points="1274.25,-396 1179.75,-396 1179.75,-360 1280.25,-360 1280.25,-390 1274.25,-396"/>
<polyline fill="none" stroke="black" points="1274.25,-396 1274.25,-390 "/>
<polyline fill="none" stroke="black" points="1280.25,-390 1274.25,-390 "/>
<text text-anchor="middle" x="1230" y="-374.3" font-family="Times,serif" font-size="14.00">output.fqdn</text>
</g>
<!-- [root] output.fqdn&#45;&gt;[root] aws_route53_record.test&#45;site -->
<g id="edge29" class="edge"><title>[root] output.fqdn&#45;&gt;[root] aws_route53_record.test&#45;site</title>
<path fill="none" stroke="black" d="M1179.69,-362.323C1176.42,-361.5 1173.17,-360.717 1170,-360 1108.96,-346.177 1040.44,-334.108 983.369,-324.992"/>
<polygon fill="black" stroke="black" points="983.642,-321.492 973.217,-323.383 982.546,-328.406 983.642,-321.492"/>
</g>
<!-- [root] output.website_endpoint -->
<g id="node17" class="node"><title>[root] output.website_endpoint</title>
<polygon fill="none" stroke="black" points="1622,-252 1434,-252 1434,-216 1628,-216 1628,-246 1622,-252"/>
<polyline fill="none" stroke="black" points="1622,-252 1622,-246 "/>
<polyline fill="none" stroke="black" points="1628,-246 1622,-246 "/>
<text text-anchor="middle" x="1531" y="-230.3" font-family="Times,serif" font-size="14.00">output.website_endpoint</text>
</g>
<!-- [root] output.website_endpoint&#45;&gt;[root] aws_s3_bucket.b -->
<g id="edge30" class="edge"><title>[root] output.website_endpoint&#45;&gt;[root] aws_s3_bucket.b</title>
<path fill="none" stroke="black" d="M1481.84,-215.966C1453.5,-206.142 1417.68,-193.729 1387.84,-183.389"/>
<polygon fill="black" stroke="black" points="1388.97,-180.078 1378.38,-180.111 1386.68,-186.692 1388.97,-180.078"/>
</g>
<!-- [root] var.aws_region -->
<g id="node19" class="node"><title>[root] var.aws_region</title>
<polygon fill="none" stroke="black" points="749,-36 631,-36 631,-0 755,-0 755,-30 749,-36"/>
<polyline fill="none" stroke="black" points="749,-36 749,-30 "/>
<polyline fill="none" stroke="black" points="755,-30 749,-30 "/>
<text text-anchor="middle" x="693" y="-14.3" font-family="Times,serif" font-size="14.00">var.aws_region</text>
</g>
<!-- [root] provider.aws&#45;&gt;[root] var.aws_region -->
<g id="edge36" class="edge"><title>[root] provider.aws&#45;&gt;[root] var.aws_region</title>
<path fill="none" stroke="black" d="M693,-71.6966C693,-63.9827 693,-54.7125 693,-46.1124"/>
<polygon fill="black" stroke="black" points="696.5,-46.1043 693,-36.1043 689.5,-46.1044 696.5,-46.1043"/>
</g>
<!-- [root] meta.count&#45;boundary (EachMode fixup) -->
<g id="node21" class="node"><title>[root] meta.count&#45;boundary (EachMode fixup)</title>
<ellipse fill="none" stroke="black" cx="1044" cy="-450" rx="224.345" ry="18"/>
<text text-anchor="middle" x="1044" y="-446.3" font-family="Times,serif" font-size="14.00">[root] meta.count&#45;boundary (EachMode fixup)</text>
</g>
<!-- [root] meta.count&#45;boundary (EachMode fixup)&#45;&gt;[root] aws_codebuild_project.project&#45;with&#45;cache -->
<g id="edge19" class="edge"><title>[root] meta.count&#45;boundary (EachMode fixup)&#45;&gt;[root] aws_codebuild_project.project&#45;with&#45;cache</title>
<path fill="none" stroke="black" d="M1033.62,-431.697C1028.74,-423.559 1022.81,-413.689 1017.42,-404.701"/>
<polygon fill="black" stroke="black" points="1020.41,-402.879 1012.26,-396.104 1014.41,-406.48 1020.41,-402.879"/>
</g>
<!-- [root] meta.count&#45;boundary (EachMode fixup)&#45;&gt;[root] aws_codebuild_project.test&#45;build -->
<g id="edge20" class="edge"><title>[root] meta.count&#45;boundary (EachMode fixup)&#45;&gt;[root] aws_codebuild_project.test&#45;build</title>
<path fill="none" stroke="black" d="M909.686,-435.559C811.107,-425.519 673.677,-411.16 543.613,-396.176"/>
<polygon fill="black" stroke="black" points="543.799,-392.674 533.464,-395.003 542.996,-399.628 543.799,-392.674"/>
</g>
<!-- [root] meta.count&#45;boundary (EachMode fixup)&#45;&gt;[root] aws_iam_role_policy.test&#45;build -->
<g id="edge21" class="edge"><title>[root] meta.count&#45;boundary (EachMode fixup)&#45;&gt;[root] aws_iam_role_policy.test&#45;build</title>
<path fill="none" stroke="black" d="M959.843,-433.291C903.706,-422.812 829.597,-408.978 770.237,-397.898"/>
<polygon fill="black" stroke="black" points="770.562,-394.398 760.089,-396.003 769.277,-401.279 770.562,-394.398"/>
</g>
<!-- [root] meta.count&#45;boundary (EachMode fixup)&#45;&gt;[root] aws_lambda_function.test_lambda -->
<g id="edge22" class="edge"><title>[root] meta.count&#45;boundary (EachMode fixup)&#45;&gt;[root] aws_lambda_function.test_lambda</title>
<path fill="none" stroke="black" d="M884.779,-437.307C859.756,-435.506 834.177,-433.686 810,-432 573.767,-415.53 511.721,-418.396 272.555,-396.12"/>
<polygon fill="black" stroke="black" points="272.789,-392.626 262.507,-395.179 272.137,-399.596 272.789,-392.626"/>
</g>
<!-- [root] meta.count&#45;boundary (EachMode fixup)&#45;&gt;[root] output.bucket_name -->
<g id="edge23" class="edge"><title>[root] meta.count&#45;boundary (EachMode fixup)&#45;&gt;[root] output.bucket_name</title>
<path fill="none" stroke="black" d="M1167.65,-434.95C1212.76,-427.036 1263.37,-414.803 1307,-396 1344.56,-379.811 1382.16,-351.259 1406.37,-330.859"/>
<polygon fill="black" stroke="black" points="1408.73,-333.446 1414.05,-324.283 1404.18,-328.129 1408.73,-333.446"/>
</g>
<!-- [root] meta.count&#45;boundary (EachMode fixup)&#45;&gt;[root] output.cloudfront_distribution_domain_name -->
<g id="edge24" class="edge"><title>[root] meta.count&#45;boundary (EachMode fixup)&#45;&gt;[root] output.cloudfront_distribution_domain_name</title>
<path fill="none" stroke="black" d="M1175.83,-435.398C1225.54,-427.314 1273.8,-414.84 1289,-396 1299.05,-383.548 1297.87,-373.315 1289,-360 1279.78,-346.169 1266.2,-335.941 1251.3,-328.38"/>
<polygon fill="black" stroke="black" points="1252.43,-325.043 1241.88,-324.008 1249.48,-331.393 1252.43,-325.043"/>
</g>
<!-- [root] meta.count&#45;boundary (EachMode fixup)&#45;&gt;[root] output.fqdn -->
<g id="edge25" class="edge"><title>[root] meta.count&#45;boundary (EachMode fixup)&#45;&gt;[root] output.fqdn</title>
<path fill="none" stroke="black" d="M1088.55,-432.233C1114.51,-422.464 1147.45,-410.066 1175.02,-399.693"/>
<polygon fill="black" stroke="black" points="1176.39,-402.914 1184.52,-396.116 1173.93,-396.363 1176.39,-402.914"/>
</g>
<!-- [root] meta.count&#45;boundary (EachMode fixup)&#45;&gt;[root] output.website_endpoint -->
<g id="edge26" class="edge"><title>[root] meta.count&#45;boundary (EachMode fixup)&#45;&gt;[root] output.website_endpoint</title>
<path fill="none" stroke="black" d="M1165.6,-434.864C1293.57,-417.112 1482.19,-381.772 1524,-324 1536.74,-306.389 1537.63,-281.361 1535.82,-262.329"/>
<polygon fill="black" stroke="black" points="1539.26,-261.678 1534.55,-252.188 1532.32,-262.544 1539.26,-261.678"/>
</g>
<!-- [root] provider.aws (close) -->
<g id="node22" class="node"><title>[root] provider.aws (close)</title>
<ellipse fill="none" stroke="black" cx="669" cy="-450" rx="132.382" ry="18"/>
<text text-anchor="middle" x="669" y="-446.3" font-family="Times,serif" font-size="14.00">[root] provider.aws (close)</text>
</g>
<!-- [root] provider.aws (close)&#45;&gt;[root] aws_codebuild_project.project&#45;with&#45;cache -->
<g id="edge31" class="edge"><title>[root] provider.aws (close)&#45;&gt;[root] aws_codebuild_project.project&#45;with&#45;cache</title>
<path fill="none" stroke="black" d="M737.594,-434.581C787.691,-424.05 856.128,-409.664 910.824,-398.166"/>
<polygon fill="black" stroke="black" points="911.804,-401.537 920.87,-396.054 910.364,-394.686 911.804,-401.537"/>
</g>
<!-- [root] provider.aws (close)&#45;&gt;[root] aws_codebuild_project.test&#45;build -->
<g id="edge32" class="edge"><title>[root] provider.aws (close)&#45;&gt;[root] aws_codebuild_project.test&#45;build</title>
<path fill="none" stroke="black" d="M611.827,-433.725C573.354,-423.446 522.268,-409.797 480.74,-398.702"/>
<polygon fill="black" stroke="black" points="481.513,-395.285 470.948,-396.085 479.706,-402.048 481.513,-395.285"/>
</g>
<!-- [root] provider.aws (close)&#45;&gt;[root] aws_iam_role_policy.test&#45;build -->
<g id="edge33" class="edge"><title>[root] provider.aws (close)&#45;&gt;[root] aws_iam_role_policy.test&#45;build</title>
<path fill="none" stroke="black" d="M669,-431.697C669,-423.983 669,-414.712 669,-406.112"/>
<polygon fill="black" stroke="black" points="672.5,-406.104 669,-396.104 665.5,-406.104 672.5,-406.104"/>
</g>
<!-- [root] provider.aws (close)&#45;&gt;[root] aws_lambda_function.test_lambda -->
<g id="edge34" class="edge"><title>[root] provider.aws (close)&#45;&gt;[root] aws_lambda_function.test_lambda</title>
<path fill="none" stroke="black" d="M577.126,-437.046C493.357,-426.147 368.334,-409.88 271.934,-397.337"/>
<polygon fill="black" stroke="black" points="272.178,-393.839 261.81,-396.02 271.275,-400.781 272.178,-393.839"/>
</g>
<!-- [root] provider.aws (close)&#45;&gt;[root] aws_route53_record.test&#45;site -->
<g id="edge35" class="edge"><title>[root] provider.aws (close)&#45;&gt;[root] aws_route53_record.test&#45;site</title>
<path fill="none" stroke="black" d="M723.02,-433.546C746.711,-425.018 773.872,-412.707 795,-396 816.766,-378.788 834.732,-352.513 846.218,-332.969"/>
<polygon fill="black" stroke="black" points="849.274,-334.674 851.177,-324.252 843.19,-331.213 849.274,-334.674"/>
</g>
<!-- [root] root -->
<g id="node23" class="node"><title>[root] root</title>
<ellipse fill="none" stroke="black" cx="856" cy="-522" rx="58.2422" ry="18"/>
<text text-anchor="middle" x="856" y="-518.3" font-family="Times,serif" font-size="14.00">[root] root</text>
</g>
<!-- [root] root&#45;&gt;[root] meta.count&#45;boundary (EachMode fixup) -->
<g id="edge37" class="edge"><title>[root] root&#45;&gt;[root] meta.count&#45;boundary (EachMode fixup)</title>
<path fill="none" stroke="black" d="M891.804,-507.669C919.417,-497.387 958.075,-482.993 989.52,-471.285"/>
<polygon fill="black" stroke="black" points="990.877,-474.515 999.027,-467.745 988.434,-467.955 990.877,-474.515"/>
</g>
<!-- [root] root&#45;&gt;[root] provider.aws (close) -->
<g id="edge38" class="edge"><title>[root] root&#45;&gt;[root] provider.aws (close)</title>
<path fill="none" stroke="black" d="M820.387,-507.669C792.44,-497.208 753.12,-482.489 721.556,-470.673"/>
<polygon fill="black" stroke="black" points="722.623,-467.336 712.031,-467.108 720.169,-473.891 722.623,-467.336"/>
</g>
</g>
</svg>
